<svg xmlns="http://www.w3.org/2000/svg" viewBox="0 0 64 64" role="img" aria-labelledby="title">
  <title id="title">Ledgerline Refill bottle and circular return mark</title>
  <circle cx="32" cy="32" r="29" fill="#e3efe3" stroke="#173d31" stroke-width="2"/>
  <path d="M18 22a18 18 0 0 1 30-1" fill="none" stroke="#548d69" stroke-width="3.5" stroke-linecap="round"/>
  <path d="m47 15 2 8-8-1" fill="none" stroke="#548d69" stroke-width="3.5" stroke-linecap="round" stroke-linejoin="round"/>
  <path d="M46 43a18 18 0 0 1-30-1" fill="none" stroke="#548d69" stroke-width="3.5" stroke-linecap="round"/>
  <path d="m17 49-2-8 8 1" fill="none" stroke="#548d69" stroke-width="3.5" stroke-linecap="round" stroke-linejoin="round"/>
  <path d="M27 24h10m-8 0v4l-3 4v11c0 2 1 3 3 3h6c2 0 3-1 3-3V32l-3-4v-4" fill="#fffefa" stroke="#173d31" stroke-width="2.6" stroke-linejoin="round" stroke-linecap="round"/>
  <path d="M29 36h6m-6 4h6" stroke="#548d69" stroke-width="2" stroke-linecap="round"/>
</svg>
